<svg id="Layer_1" data-name="Layer 1" xmlns="http://www.w3.org/2000/svg" viewBox="0 0 265.1 111.61"><defs><style>.cls-1{fill:#ff4b00;}.cls-2{fill:#fff;}</style></defs><title>dolittle_negativ_horisontal</title><rect class="cls-1" width="265.1" height="111.61"/><path class="cls-2" d="M58.81,46.22H53.18a1,1,0,0,0-.84.49l-2.81,4.87a1,1,0,0,0,0,1l2.81,4.87a1,1,0,0,0,.84.49h5.63a1,1,0,0,0,.84-.49l2.81-4.87a1,1,0,0,0,0-1l-2.81-4.87a1,1,0,0,0-.84-.49Z"/><path class="cls-2" d="M67.66,33.3a.48.48,0,0,0-.83,0l-4.55,7.88a.83.83,0,0,0,0,.81l5.65,9.78a.59.59,0,0,1,0,.6l-5.71,9.88a.59.59,0,0,1-.52.31H50.41a.8.8,0,0,0-.7.4l-4.55,7.88a.48.48,0,0,0,.42.72H66a2.17,2.17,0,0,0,1.87-1.09l10-17.32a2.14,2.14,0,0,0,0-2.16Z"/><path class="cls-2" d="M110.68,54.46v0a8.66,8.66,0,0,1,17.31,0v0a8.65,8.65,0,0,1-17.3,0Zm13.56,0v0a5,5,0,0,0-4.91-5.14,4.86,4.86,0,0,0-4.9,5.05v0a5,5,0,0,0,4.92,5.14A4.88,4.88,0,0,0,124.24,54.51Z"/><path class="cls-2" d="M110.68,54.46v0a8.66,8.66,0,0,1,17.31,0v0a8.65,8.65,0,0,1-17.3,0Zm13.56,0v0a5,5,0,0,0-4.91-5.14,4.86,4.86,0,0,0-4.9,5.05v0a5,5,0,0,0,4.92,5.14A4.88,4.88,0,0,0,124.24,54.51Z"/><path class="cls-2" d="M93.46,47.32a1.1,1.1,0,0,1,1.1-1.1l5.25,0c5.12,0,8.64,3.55,8.62,8.13v0c0,4.59-3.56,8.13-8.68,8.11H94.5a1.11,1.11,0,0,1-1.1-1.11Zm6.3,12a4.64,4.64,0,0,0,4.93-4.84V54.4a4.67,4.67,0,0,0-4.89-4.92H97l0,9.81Z"/><path class="cls-2" d="M130.76,47.93a1.78,1.78,0,0,1,2-1.78A1.84,1.84,0,0,1,134.34,48l0,11.29,6.56,0a1.68,1.68,0,0,1,1.67,1.38,1.62,1.62,0,0,1-1.62,1.88l-9.1,0a1.1,1.1,0,0,1-1.1-1.11Z"/><path class="cls-2" d="M145.32,47.92a1.79,1.79,0,0,1,3.58,0l-.05,13a1.79,1.79,0,1,1-3.58,0Z"/><path class="cls-2" d="M156.54,49.58h-3.45a1.65,1.65,0,0,1,0-3.3l10.46,0a1.66,1.66,0,1,1,0,3.31l-3.44,0,0,11.33a1.8,1.8,0,0,1-3.59,0Z"/><path class="cls-2" d="M171.62,49.58h-3.44a1.65,1.65,0,1,1,0-3.3l10.47,0a1.66,1.66,0,1,1,0,3.31l-3.45,0,0,11.33a1.79,1.79,0,0,1-3.58,0Z"/><path class="cls-2" d="M182.91,47.91a1.78,1.78,0,0,1,2-1.77A1.83,1.83,0,0,1,186.49,48l0,11.3,6.56,0a1.68,1.68,0,0,1,1.67,1.37,1.63,1.63,0,0,1-1.61,1.89l-9.1,0a1.12,1.12,0,0,1-1.11-1.12Z"/><path class="cls-2" d="M197.26,61.43l.05-14.08a1.09,1.09,0,0,1,1.1-1.09l9.63,0a1.66,1.66,0,0,1,1.68,1.46,1.58,1.58,0,0,1-1.6,1.72l-7.26,0v3.3l6.12,0a1.67,1.67,0,0,1,1.68,1.46,1.58,1.58,0,0,1-1.6,1.73l-6.21,0v3.42l7.28,0a1.67,1.67,0,0,1,1.68,1.46,1.58,1.58,0,0,1-1.6,1.73l-9.83,0A1.11,1.11,0,0,1,197.26,61.43Z"/><path class="cls-2" d="M197.26,61.43l.05-14.08a1.09,1.09,0,0,1,1.1-1.09l9.63,0a1.66,1.66,0,0,1,1.68,1.46,1.58,1.58,0,0,1-1.6,1.72l-7.26,0v3.3l6.12,0a1.67,1.67,0,0,1,1.68,1.46,1.58,1.58,0,0,1-1.6,1.73l-6.21,0v3.42l7.28,0a1.67,1.67,0,0,1,1.68,1.46,1.58,1.58,0,0,1-1.6,1.73l-9.83,0A1.11,1.11,0,0,1,197.26,61.43Z"/></svg>