<?xml version="1.0" encoding="UTF-8" standalone="no"?>
<svg
   xmlns:dc="http://purl.org/dc/elements/1.1/"
   xmlns:cc="http://creativecommons.org/ns#"
   xmlns:rdf="http://www.w3.org/1999/02/22-rdf-syntax-ns#"
   xmlns:svg="http://www.w3.org/2000/svg"
   xmlns="http://www.w3.org/2000/svg"
   xmlns:sodipodi="http://sodipodi.sourceforge.net/DTD/sodipodi-0.dtd"
   xmlns:inkscape="http://www.inkscape.org/namespaces/inkscape"
   id="Layer_1"
   data-name="Layer 1"
   viewBox="0 17 265.1 73"
   version="1.1"
   sodipodi:docname="dolittle_negativ_horisontal_smaller_RGB.svg"
   inkscape:version="1.0.2 (1.0.2+r75+1)">
  <metadata
     id="metadata208">
    <rdf:RDF>
      <cc:Work
         rdf:about="">
        <dc:format>image/svg+xml</dc:format>
        <dc:type
           rdf:resource="http://purl.org/dc/dcmitype/StillImage" />
        <dc:title>dolittle_negativ_horisontal</dc:title>
      </cc:Work>
    </rdf:RDF>
  </metadata>
  <sodipodi:namedview
     pagecolor="#ffffff"
     bordercolor="#666666"
     borderopacity="1"
     objecttolerance="10"
     gridtolerance="10"
     guidetolerance="10"
     inkscape:pageopacity="0"
     inkscape:pageshadow="2"
     inkscape:window-width="1262"
     inkscape:window-height="1388"
     id="namedview206"
     showgrid="false"
     inkscape:zoom="3.6462276"
     inkscape:cx="140.24994"
     inkscape:cy="80.105633"
     inkscape:window-x="6403"
     inkscape:window-y="37"
     inkscape:window-maximized="0"
     inkscape:current-layer="Layer_1" />
  <defs
     id="defs175">
    <style
       id="style173">.cls-1{fill:#ff4b00;}.cls-2{fill:#fff;}</style>
    <clipPath
       clipPathUnits="userSpaceOnUse"
       id="clipPath237">
      <rect
         style="fill:#0000ff;fill-rule:evenodd"
         id="rect239"
         width="265.68542"
         height="74.678993"
         x="-0.1929702"
         y="16.832506" />
    </clipPath>
  </defs>
  <title
     id="title177">dolittle_negativ_horisontal</title>
  <path
     id="rect179"
     style="fill:#ff4b00"
     d="M -0.48637596,16.6695 H 266.1468 V 90.907705 H -0.48637596 Z"
     class="cls-1" />
  <path
     class="cls-2"
     d="m 58.81,46.22 h -5.63 a 1,1 0 0 0 -0.84,0.49 l -2.81,4.87 a 1,1 0 0 0 0,1 l 2.81,4.87 a 1,1 0 0 0 0.84,0.49 h 5.63 a 1,1 0 0 0 0.84,-0.49 l 2.81,-4.87 a 1,1 0 0 0 0,-1 l -2.81,-4.87 a 1,1 0 0 0 -0.84,-0.49 z"
     id="path181" />
  <path
     class="cls-2"
     d="m 67.66,33.3 a 0.48,0.48 0 0 0 -0.83,0 l -4.55,7.88 a 0.83,0.83 0 0 0 0,0.81 l 5.65,9.78 a 0.59,0.59 0 0 1 0,0.6 l -5.71,9.88 A 0.59,0.59 0 0 1 61.7,62.56 H 50.41 a 0.8,0.8 0 0 0 -0.7,0.4 l -4.55,7.88 a 0.48,0.48 0 0 0 0.42,0.72 H 66 a 2.17,2.17 0 0 0 1.87,-1.09 l 10,-17.32 a 2.14,2.14 0 0 0 0,-2.16 z"
     id="path183" />
  <path
     class="cls-2"
     d="m 110.68,54.46 v 0 a 8.66,8.66 0 0 1 17.31,0 v 0 a 8.65,8.65 0 0 1 -17.3,0 z m 13.56,0 v 0 a 5,5 0 0 0 -4.91,-5.14 4.86,4.86 0 0 0 -4.9,5.05 v 0 a 5,5 0 0 0 4.92,5.14 4.88,4.88 0 0 0 4.89,-5 z"
     id="path185" />
  <path
     class="cls-2"
     d="m 110.68,54.46 v 0 a 8.66,8.66 0 0 1 17.31,0 v 0 a 8.65,8.65 0 0 1 -17.3,0 z m 13.56,0 v 0 a 5,5 0 0 0 -4.91,-5.14 4.86,4.86 0 0 0 -4.9,5.05 v 0 a 5,5 0 0 0 4.92,5.14 4.88,4.88 0 0 0 4.89,-5 z"
     id="path187" />
  <path
     class="cls-2"
     d="m 93.46,47.32 a 1.1,1.1 0 0 1 1.1,-1.1 h 5.25 c 5.12,0 8.64,3.55 8.62,8.13 v 0 c 0,4.59 -3.56,8.13 -8.68,8.11 H 94.5 a 1.11,1.11 0 0 1 -1.1,-1.11 z m 6.3,12 a 4.64,4.64 0 0 0 4.93,-4.84 V 54.4 A 4.67,4.67 0 0 0 99.8,49.48 H 97 v 9.81 z"
     id="path189" />
  <path
     class="cls-2"
     d="m 130.76,47.93 a 1.78,1.78 0 0 1 2,-1.78 1.84,1.84 0 0 1 1.58,1.85 v 11.29 h 6.56 a 1.68,1.68 0 0 1 1.67,1.38 1.62,1.62 0 0 1 -1.62,1.88 h -9.1 a 1.1,1.1 0 0 1 -1.1,-1.11 z"
     id="path191" />
  <path
     class="cls-2"
     d="m 145.32,47.92 a 1.79,1.79 0 0 1 3.58,0 l -0.05,13 a 1.79,1.79 0 1 1 -3.58,0 z"
     id="path193" />
  <path
     class="cls-2"
     d="m 156.54,49.58 h -3.45 a 1.65,1.65 0 0 1 0,-3.3 h 10.46 a 1.66,1.66 0 1 1 0,3.31 h -3.44 v 11.33 a 1.8,1.8 0 0 1 -3.59,0 z"
     id="path195" />
  <path
     class="cls-2"
     d="m 171.62,49.58 h -3.44 a 1.65,1.65 0 1 1 0,-3.3 h 10.47 a 1.66,1.66 0 1 1 0,3.31 h -3.45 v 11.33 a 1.79,1.79 0 0 1 -3.58,0 z"
     id="path197" />
  <path
     class="cls-2"
     d="m 182.91,47.91 a 1.78,1.78 0 0 1 2,-1.77 1.83,1.83 0 0 1 1.58,1.86 v 11.3 h 6.56 a 1.68,1.68 0 0 1 1.67,1.37 1.63,1.63 0 0 1 -1.61,1.89 h -9.1 a 1.12,1.12 0 0 1 -1.11,-1.12 z"
     id="path199" />
  <path
     class="cls-2"
     d="m 197.26,61.43 0.05,-14.08 a 1.09,1.09 0 0 1 1.1,-1.09 h 9.63 a 1.66,1.66 0 0 1 1.68,1.46 1.58,1.58 0 0 1 -1.6,1.72 h -7.26 v 3.3 h 6.12 a 1.67,1.67 0 0 1 1.68,1.46 1.58,1.58 0 0 1 -1.6,1.73 h -6.21 v 3.42 h 7.28 a 1.67,1.67 0 0 1 1.68,1.46 1.58,1.58 0 0 1 -1.6,1.73 h -9.83 a 1.11,1.11 0 0 1 -1.12,-1.11 z"
     id="path201" />
  <path
     class="cls-2"
     d="m 197.26,61.43 0.05,-14.08 a 1.09,1.09 0 0 1 1.1,-1.09 h 9.63 a 1.66,1.66 0 0 1 1.68,1.46 1.58,1.58 0 0 1 -1.6,1.72 h -7.26 v 3.3 h 6.12 a 1.67,1.67 0 0 1 1.68,1.46 1.58,1.58 0 0 1 -1.6,1.73 h -6.21 v 3.42 h 7.28 a 1.67,1.67 0 0 1 1.68,1.46 1.58,1.58 0 0 1 -1.6,1.73 h -9.83 a 1.11,1.11 0 0 1 -1.12,-1.11 z"
     id="path203" />
</svg>
